<?xml version="1.0" encoding="UTF-8" standalone="no"?>
<!DOCTYPE svg PUBLIC "-//W3C//DTD SVG 1.1//EN" "http://www.w3.org/Graphics/SVG/1.1/DTD/svg11.dtd">
<svg version="1.1" xmlns="http://www.w3.org/2000/svg" xmlns:xlink="http://www.w3.org/1999/xlink" preserveAspectRatio="xMidYMid meet" viewBox="261.86331139281407 151.42457946364948 82.35482586208781 80.67308165292269" width="82.35" height="80.67"><defs><path d="M333.3 185.33C333.3 202.33 319.5 216.13 302.5 216.13C285.5 216.13 271.7 202.33 271.7 185.33C271.7 168.34 285.5 154.54 302.5 154.54C319.5 154.54 333.3 168.34 333.3 185.33Z" id="b1mutX1OS0"></path><path d="M318.31 164.83C320.08 162.63 322.05 160.86 324.13 159.54C327.26 157.56 330.65 156.6 334.1 156.8C335.45 156.87 338.82 157.06 344.22 157.36C332.99 152.05 323.64 152.74 316.15 159.41C313.53 161.75 310.73 165.98 307.73 172.1L300.55 186.83C310.02 175.1 315.94 167.76 318.31 164.83Z" id="b1j7OHCPGF"></path><path d="M308.39 201.09C309.69 204.23 310.43 207.3 310.62 210.23C310.9 214.61 309.94 218.66 307.74 222.07C306.87 223.41 304.72 226.75 301.27 232.1C313.4 223.79 318.1 213.8 315.38 202.14C314.43 198.05 311.58 192.64 306.84 185.91L295.4 169.71C302.33 186.45 306.66 196.91 308.39 201.09Z" id="cxc1Cl3eO"></path><path d="M281.73 174.54C278.42 173.76 275.53 172.59 273.12 171.07C269.49 168.79 266.95 165.75 265.73 162.11C265.25 160.69 264.04 157.13 262.12 151.42C260.67 165.51 265.41 174.82 276.33 179.34C280.15 180.93 286.26 181.8 294.65 181.97L314.83 182.34C297.18 178.18 286.14 175.58 281.73 174.54Z" id="aCccaW0p4"></path><path d="M322.5 180C322.5 191.04 313.54 200 302.5 200C291.46 200 282.5 191.04 282.5 180C282.5 168.96 291.46 160 302.5 160C313.54 160 322.5 168.96 322.5 180Z" id="c1uZPE50kE"></path><path d="M295.11 192.8C290.25 189.99 289.61 181.97 293.69 174.91C297.76 167.85 305.02 164.39 309.89 167.2C314.75 170.01 315.39 178.03 311.31 185.09C307.24 192.15 299.98 195.61 295.11 192.8Z" id="d3QTTRKqcG"></path><path d="M310.19 180.19C310.19 184.43 306.74 187.88 302.5 187.88C298.26 187.88 294.81 184.43 294.81 180.19C294.81 175.94 298.26 172.5 302.5 172.5C306.74 172.5 310.19 175.94 310.19 180.19Z" id="i1nCvO1MlQ"></path></defs><g><g><use xlink:href="#b1mutX1OS0" opacity="1" fill="#3949ab" fill-opacity="1"></use></g><g><g><filter id="shadow2415279" x="291.55" y="144.83" width="61.67" height="52" filterUnits="userSpaceOnUse" primitiveUnits="userSpaceOnUse"><feFlood></feFlood><feComposite in2="SourceAlpha" operator="in"></feComposite><feGaussianBlur stdDeviation="1"></feGaussianBlur><feOffset dx="0" dy="-1" result="afterOffset"></feOffset><feFlood flood-color="#000000" flood-opacity="0.5"></feFlood><feComposite in2="afterOffset" operator="in"></feComposite><feMorphology operator="dilate" radius="1"></feMorphology><feComposite in2="SourceAlpha" operator="out"></feComposite></filter><path d="M318.31 164.83C320.08 162.63 322.05 160.86 324.13 159.54C327.26 157.56 330.65 156.6 334.1 156.8C335.45 156.87 338.82 157.06 344.22 157.36C332.99 152.05 323.64 152.74 316.15 159.41C313.53 161.75 310.73 165.98 307.73 172.1L300.55 186.83C310.02 175.1 315.94 167.76 318.31 164.83Z" id="b6j63hWjq" fill="white" fill-opacity="1" filter="url(#shadow2415279)"></path></g><use xlink:href="#b1j7OHCPGF" opacity="1" fill="#4a148c" fill-opacity="1"></use><g><use xlink:href="#b1j7OHCPGF" opacity="1" fill-opacity="0" stroke="#3949ab" stroke-width="1" stroke-opacity="1"></use></g></g><g><g><filter id="shadow6400762" x="286.4" y="160.71" width="38.73" height="81.39" filterUnits="userSpaceOnUse" primitiveUnits="userSpaceOnUse"><feFlood></feFlood><feComposite in2="SourceAlpha" operator="in"></feComposite><feGaussianBlur stdDeviation="1"></feGaussianBlur><feOffset dx="0" dy="-1" result="afterOffset"></feOffset><feFlood flood-color="#000000" flood-opacity="0.5"></feFlood><feComposite in2="afterOffset" operator="in"></feComposite><feMorphology operator="dilate" radius="1"></feMorphology><feComposite in2="SourceAlpha" operator="out"></feComposite></filter><path d="M308.39 201.09C309.69 204.23 310.43 207.3 310.62 210.23C310.9 214.61 309.94 218.66 307.74 222.07C306.87 223.41 304.72 226.75 301.27 232.1C313.4 223.79 318.1 213.8 315.38 202.14C314.43 198.05 311.58 192.64 306.84 185.91L295.4 169.71C302.33 186.45 306.66 196.91 308.39 201.09Z" id="c64fwFYLXt" fill="white" fill-opacity="1" filter="url(#shadow6400762)"></path></g><use xlink:href="#cxc1Cl3eO" opacity="1" fill="#4a148c" fill-opacity="1"></use><g><use xlink:href="#cxc1Cl3eO" opacity="1" fill-opacity="0" stroke="#3949ab" stroke-width="1" stroke-opacity="1"></use></g></g><g><g><filter id="shadow5754316" x="252.86" y="142.42" width="70.97" height="49.92" filterUnits="userSpaceOnUse" primitiveUnits="userSpaceOnUse"><feFlood></feFlood><feComposite in2="SourceAlpha" operator="in"></feComposite><feGaussianBlur stdDeviation="1"></feGaussianBlur><feOffset dx="0" dy="-1" result="afterOffset"></feOffset><feFlood flood-color="#000000" flood-opacity="0.5"></feFlood><feComposite in2="afterOffset" operator="in"></feComposite><feMorphology operator="dilate" radius="1"></feMorphology><feComposite in2="SourceAlpha" operator="out"></feComposite></filter><path d="M281.73 174.54C278.42 173.76 275.53 172.59 273.12 171.07C269.49 168.79 266.95 165.75 265.73 162.11C265.25 160.69 264.04 157.13 262.12 151.42C260.67 165.51 265.41 174.82 276.33 179.34C280.15 180.93 286.26 181.8 294.65 181.97L314.83 182.34C297.18 178.18 286.14 175.58 281.73 174.54Z" id="aH3U4NYzX" fill="white" fill-opacity="1" filter="url(#shadow5754316)"></path></g><use xlink:href="#aCccaW0p4" opacity="1" fill="#4a148c" fill-opacity="1"></use><g><use xlink:href="#aCccaW0p4" opacity="1" fill-opacity="0" stroke="#3949ab" stroke-width="1" stroke-opacity="1"></use></g></g><g><g><filter id="shadow2310404" x="273.5" y="151" width="58" height="59" filterUnits="userSpaceOnUse" primitiveUnits="userSpaceOnUse"><feFlood></feFlood><feComposite in2="SourceAlpha" operator="in"></feComposite><feGaussianBlur stdDeviation="1"></feGaussianBlur><feOffset dx="0" dy="-1" result="afterOffset"></feOffset><feFlood flood-color="#000000" flood-opacity="0.5"></feFlood><feComposite in2="afterOffset" operator="in"></feComposite><feMorphology operator="dilate" radius="1"></feMorphology><feComposite in2="SourceAlpha" operator="out"></feComposite></filter><path d="M322.5 180C322.5 191.04 313.54 200 302.5 200C291.46 200 282.5 191.04 282.5 180C282.5 168.96 291.46 160 302.5 160C313.54 160 322.5 168.96 322.5 180Z" id="gtQQAYs37" fill="white" fill-opacity="1" filter="url(#shadow2310404)"></path></g><use xlink:href="#c1uZPE50kE" opacity="1" fill="#270a4c" fill-opacity="1"></use><g><use xlink:href="#c1uZPE50kE" opacity="1" fill-opacity="0" stroke="#3949ab" stroke-width="1" stroke-opacity="1"></use></g></g><g><use xlink:href="#d3QTTRKqcG" opacity="1" fill="#4a148c" fill-opacity="1"></use></g><g><use xlink:href="#i1nCvO1MlQ" opacity="1" fill="#270a4c" fill-opacity="1"></use></g></g></svg>